<svg width="523" height="254" viewBox="0 0 523 254" fill="none" xmlns="http://www.w3.org/2000/svg">
<path d="M82.2871 93.0722C183.828 -29.3691 343 -32.669 441.723 93.0751L523 93.0761V175.733C483.937 196.996 447.662 214.018 412.934 226.755C406.187 216.654 394.684 210 381.625 210C361.14 210 344.479 226.371 344.011 246.743C327.105 250.258 310.381 252.653 293.676 253.924C288.197 239.919 274.57 230 258.625 230C243.138 230 229.839 239.357 224.067 252.726C207.323 250.898 190.376 247.967 173.068 243.926C171.21 224.882 155.156 210 135.625 210C123.928 210 113.477 215.338 106.576 223.711C73.1854 211.389 37.9715 195.408 0 175.733V93.0722H82.2871ZM476.86 131.533L472.71 138.407C471.387 138.734 470.027 139.484 468.631 140.657C467.235 141.831 465.852 143.552 464.482 145.82C463.652 147.195 462.95 148.616 462.377 150.083C461.804 151.55 461.47 152.88 461.375 154.073C462.503 154.379 463.602 154.307 464.67 153.858C465.738 153.409 466.577 152.681 467.186 151.673C467.508 151.086 467.802 150.419 468.065 149.672C468.329 148.924 468.661 148.218 469.062 147.554C469.865 146.225 471.076 145.049 472.694 144.025C474.313 143.002 476.151 142.236 478.209 141.727C478.74 143.799 478.923 145.785 478.76 147.687C478.596 149.589 478.114 151.205 477.312 152.534C476.91 153.199 476.446 153.826 475.919 154.414C475.392 155.002 474.955 155.582 474.609 156.155C473.978 157.149 473.709 158.215 473.805 159.351C473.9 160.488 474.34 161.495 475.122 162.374C476.134 161.734 477.155 160.819 478.187 159.629C479.218 158.438 480.148 157.155 480.979 155.78C482.348 153.512 483.233 151.491 483.633 149.716C484.032 147.941 484.058 146.384 483.708 145.048L487.858 138.174L487.884 128.81L485.135 127.15L476.86 131.533ZM48.5488 132.409L49.6016 133.476H53.8496L51.7441 135.609L53.3613 137.248L49 141.667L42.7969 135.381V133.21L38.248 128.6L34 132.904L38.5488 137.515H40.6914L46.8945 143.8L45.6162 145.096H42.4209L34.4512 153.172C34.3009 153.324 34.1875 153.489 34.1123 153.667C34.0372 153.845 34 154.035 34 154.238C34 154.441 34.0373 154.638 34.1123 154.828C34.1875 155.019 34.3008 155.19 34.4512 155.343L37.6094 158.543C37.7596 158.695 37.9284 158.81 38.1162 158.886C38.3042 158.962 38.4987 159 38.6992 159C38.8996 159 39.0874 158.962 39.2627 158.886C39.4381 158.809 39.6016 158.695 39.752 158.543L47.7217 150.467V147.267L55.5039 139.381L57.083 140.98L59.1875 138.848L62.3838 142.086C62.8098 141.654 63.1358 141.158 63.3613 140.6C63.5868 140.041 63.6992 139.457 63.6992 138.848C63.6992 138.238 63.5869 137.66 63.3613 137.114C63.1358 136.568 62.8098 136.079 62.3838 135.647L57.0449 130.238L54.9395 132.371V128.066L53.8877 127L48.5488 132.409ZM54.8643 144.98C54.6639 144.98 54.4761 145.013 54.3008 145.076C54.1254 145.14 53.9629 145.248 53.8125 145.4L50.6162 148.638C50.4658 148.79 50.3595 148.956 50.2969 149.134C50.2343 149.311 50.2031 149.502 50.2031 149.705C50.2032 149.908 50.2343 150.099 50.2969 150.276C50.3595 150.454 50.4659 150.619 50.6162 150.771L58.2861 158.543C58.4364 158.695 58.5991 158.803 58.7744 158.866C58.9497 158.93 59.1376 158.962 59.3379 158.962C59.5384 158.962 59.7269 158.93 59.9023 158.866C60.0776 158.803 60.2404 158.695 60.3906 158.543L63.5869 155.305C63.7372 155.152 63.8436 154.987 63.9062 154.809C63.9689 154.632 64 154.441 64 154.238C64 154.035 63.9688 153.845 63.9062 153.667C63.8437 153.489 63.7371 153.324 63.5869 153.172L55.917 145.4C55.7666 145.248 55.6041 145.14 55.4287 145.076C55.2533 145.013 55.0648 144.98 54.8643 144.98ZM45.0898 148.866L38.6992 155.343L38.1729 154.771L37.6094 154.238L44 147.762H45.0898V148.866ZM60.4287 154.238L59.3379 155.343L53.8125 149.743L54.9023 148.638L60.4287 154.238ZM481.547 134.645C481.249 134.622 480.98 134.677 480.741 134.814C480.502 134.951 480.306 135.146 480.154 135.398C479.919 135.788 479.854 136.194 479.958 136.616C480.062 137.039 480.31 137.368 480.699 137.603C481.089 137.838 481.495 137.904 481.917 137.8C482.34 137.695 482.669 137.448 482.904 137.059C483.056 136.807 483.138 136.543 483.147 136.268C483.157 135.992 483.082 135.727 482.922 135.475L484.686 132.554L484.652 137.27L482.618 140.638L477.12 137.317L479.153 133.95L483.312 131.724L481.547 134.645Z" fill="url(#paint0_linear_9003_1050)"/>
<defs>
<linearGradient id="paint0_linear_9003_1050" x1="266.5" y1="-0.594593" x2="266.5" y2="257.436" gradientUnits="userSpaceOnUse">
<stop stop-color="#8DC8E2"/>
<stop offset="1" stop-color="#7FDDFE"/>
</linearGradient>
</defs>
</svg>
